<?xml version="1.0" standalone="no"?>
<!DOCTYPE svg PUBLIC "-//W3C//DTD SVG 20010904//EN"
 "http://www.w3.org/TR/2001/REC-SVG-20010904/DTD/svg10.dtd">
<svg version="1.0" xmlns="http://www.w3.org/2000/svg"
 width="980.000000pt" height="980.000000pt" viewBox="0 0 980.000000 980.000000"
 preserveAspectRatio="xMidYMid meet">
<metadata>
Created by potrace 1.16, written by Peter Selinger 2001-2019
</metadata>
<g transform="translate(0.000000,980.000000) scale(0.100000,-0.100000)"
fill="#000000" stroke="none">
<path fill="#9eaec7" d="M4900 9450 l0 -350 1837 0 1838 0 -2888 -2888 -2887 -2887 262 -263
263 -262 2887 2887 2888 2888 0 -1838 0 -1837 350 0 350 0 0 2450 0 2450
-2450 0 -2450 0 0 -350z"/>
<path fill="#9eaec7" d="M0 4550 l0 -4550 4550 0 4550 0 0 1750 0 1750 -350 0 -350 0 0 -1400
0 -1400 -3850 0 -3850 0 0 3850 0 3850 1400 0 1400 0 0 350 0 350 -1750 0
-1750 0 0 -4550z"/>
</g>
</svg>
